<mxfile host="app.diagrams.net" modified="2021-05-27T13:12:31.416Z" agent="5.0 (Windows NT 10.0; Win64; x64) AppleWebKit/537.36 (KHTML, like Gecko) Chrome/90.0.4430.212 Safari/537.36" etag="JRTMCvLbs3_TZQ5BiIxz" version="14.7.2" type="github">
  <diagram id="R2lEEEUBdFMjLlhIrx00" name="Page-1">
    <mxGraphModel dx="1038" dy="584" grid="1" gridSize="10" guides="1" tooltips="1" connect="1" arrows="1" fold="1" page="1" pageScale="1" pageWidth="3300" pageHeight="4681" math="0" shadow="0" extFonts="Permanent Marker^https://fonts.googleapis.com/css?family=Permanent+Marker">
      <root>
        <mxCell id="0" />
        <mxCell id="1" parent="0" />
        <mxCell id="oIRNVCnHQumXw-ZCoUcI-4" value="" style="edgeStyle=orthogonalEdgeStyle;rounded=0;orthogonalLoop=1;jettySize=auto;html=1;" edge="1" parent="1" source="oIRNVCnHQumXw-ZCoUcI-2" target="oIRNVCnHQumXw-ZCoUcI-3">
          <mxGeometry relative="1" as="geometry" />
        </mxCell>
        <mxCell id="oIRNVCnHQumXw-ZCoUcI-6" value="" style="edgeStyle=orthogonalEdgeStyle;rounded=0;orthogonalLoop=1;jettySize=auto;html=1;" edge="1" parent="1" source="oIRNVCnHQumXw-ZCoUcI-2" target="oIRNVCnHQumXw-ZCoUcI-5">
          <mxGeometry relative="1" as="geometry" />
        </mxCell>
        <mxCell id="oIRNVCnHQumXw-ZCoUcI-8" value="" style="edgeStyle=orthogonalEdgeStyle;rounded=0;orthogonalLoop=1;jettySize=auto;html=1;" edge="1" parent="1" source="oIRNVCnHQumXw-ZCoUcI-2" target="oIRNVCnHQumXw-ZCoUcI-7">
          <mxGeometry relative="1" as="geometry" />
        </mxCell>
        <mxCell id="oIRNVCnHQumXw-ZCoUcI-12" value="" style="edgeStyle=orthogonalEdgeStyle;rounded=0;orthogonalLoop=1;jettySize=auto;html=1;" edge="1" parent="1" source="oIRNVCnHQumXw-ZCoUcI-2" target="oIRNVCnHQumXw-ZCoUcI-11">
          <mxGeometry relative="1" as="geometry" />
        </mxCell>
        <mxCell id="oIRNVCnHQumXw-ZCoUcI-2" value="Farm" style="rounded=0;whiteSpace=wrap;html=1;fillColor=#60a917;strokeColor=#2D7600;fontColor=#ffffff;" vertex="1" parent="1">
          <mxGeometry x="450" y="4470" width="120" height="60" as="geometry" />
        </mxCell>
        <mxCell id="oIRNVCnHQumXw-ZCoUcI-3" value="Fram ID" style="ellipse;whiteSpace=wrap;html=1;rounded=0;fontColor=#ffffff;strokeColor=#2D7600;fillColor=#60a917;" vertex="1" parent="1">
          <mxGeometry x="250" y="4470" width="120" height="60" as="geometry" />
        </mxCell>
        <mxCell id="oIRNVCnHQumXw-ZCoUcI-5" value="Farm Name" style="ellipse;whiteSpace=wrap;html=1;rounded=0;fontColor=#ffffff;strokeColor=#2D7600;fillColor=#60a917;" vertex="1" parent="1">
          <mxGeometry x="660" y="4470" width="120" height="60" as="geometry" />
        </mxCell>
        <mxCell id="oIRNVCnHQumXw-ZCoUcI-7" value="Farm Address" style="ellipse;whiteSpace=wrap;html=1;rounded=0;fontColor=#ffffff;strokeColor=#2D7600;fillColor=#60a917;" vertex="1" parent="1">
          <mxGeometry x="530" y="4590" width="120" height="60" as="geometry" />
        </mxCell>
        <mxCell id="oIRNVCnHQumXw-ZCoUcI-14" value="" style="edgeStyle=orthogonalEdgeStyle;rounded=0;orthogonalLoop=1;jettySize=auto;html=1;" edge="1" parent="1" source="oIRNVCnHQumXw-ZCoUcI-11" target="oIRNVCnHQumXw-ZCoUcI-13">
          <mxGeometry relative="1" as="geometry" />
        </mxCell>
        <mxCell id="oIRNVCnHQumXw-ZCoUcI-11" value="HAS" style="rhombus;whiteSpace=wrap;html=1;rounded=0;fontColor=#ffffff;strokeColor=#2D7600;fillColor=#60a917;" vertex="1" parent="1">
          <mxGeometry x="470" y="4320" width="80" height="80" as="geometry" />
        </mxCell>
        <mxCell id="oIRNVCnHQumXw-ZCoUcI-16" value="" style="edgeStyle=orthogonalEdgeStyle;rounded=0;orthogonalLoop=1;jettySize=auto;html=1;" edge="1" parent="1" source="oIRNVCnHQumXw-ZCoUcI-13" target="oIRNVCnHQumXw-ZCoUcI-15">
          <mxGeometry relative="1" as="geometry" />
        </mxCell>
        <mxCell id="oIRNVCnHQumXw-ZCoUcI-17" value="" style="edgeStyle=orthogonalEdgeStyle;rounded=0;orthogonalLoop=1;jettySize=auto;html=1;" edge="1" parent="1" source="oIRNVCnHQumXw-ZCoUcI-13" target="oIRNVCnHQumXw-ZCoUcI-15">
          <mxGeometry relative="1" as="geometry" />
        </mxCell>
        <mxCell id="oIRNVCnHQumXw-ZCoUcI-19" value="" style="edgeStyle=orthogonalEdgeStyle;rounded=0;orthogonalLoop=1;jettySize=auto;html=1;" edge="1" parent="1" source="oIRNVCnHQumXw-ZCoUcI-13" target="oIRNVCnHQumXw-ZCoUcI-18">
          <mxGeometry relative="1" as="geometry" />
        </mxCell>
        <mxCell id="oIRNVCnHQumXw-ZCoUcI-29" value="" style="edgeStyle=none;rounded=0;orthogonalLoop=1;jettySize=auto;html=1;" edge="1" parent="1" source="oIRNVCnHQumXw-ZCoUcI-13" target="oIRNVCnHQumXw-ZCoUcI-28">
          <mxGeometry relative="1" as="geometry" />
        </mxCell>
        <mxCell id="oIRNVCnHQumXw-ZCoUcI-35" style="edgeStyle=none;rounded=0;orthogonalLoop=1;jettySize=auto;html=1;exitX=0;exitY=0;exitDx=0;exitDy=0;entryX=0.917;entryY=0.833;entryDx=0;entryDy=0;entryPerimeter=0;" edge="1" parent="1" source="oIRNVCnHQumXw-ZCoUcI-13" target="oIRNVCnHQumXw-ZCoUcI-22">
          <mxGeometry relative="1" as="geometry" />
        </mxCell>
        <mxCell id="oIRNVCnHQumXw-ZCoUcI-36" style="edgeStyle=none;rounded=0;orthogonalLoop=1;jettySize=auto;html=1;exitX=1;exitY=0.25;exitDx=0;exitDy=0;entryX=0;entryY=0.5;entryDx=0;entryDy=0;" edge="1" parent="1" source="oIRNVCnHQumXw-ZCoUcI-13" target="oIRNVCnHQumXw-ZCoUcI-21">
          <mxGeometry relative="1" as="geometry" />
        </mxCell>
        <mxCell id="oIRNVCnHQumXw-ZCoUcI-37" style="edgeStyle=none;rounded=0;orthogonalLoop=1;jettySize=auto;html=1;exitX=0;exitY=0.25;exitDx=0;exitDy=0;entryX=1;entryY=0.5;entryDx=0;entryDy=0;" edge="1" parent="1" source="oIRNVCnHQumXw-ZCoUcI-13" target="oIRNVCnHQumXw-ZCoUcI-20">
          <mxGeometry relative="1" as="geometry" />
        </mxCell>
        <mxCell id="oIRNVCnHQumXw-ZCoUcI-13" value="Milking Animals" style="whiteSpace=wrap;html=1;rounded=0;fontColor=#ffffff;strokeColor=#2D7600;fillColor=#60a917;" vertex="1" parent="1">
          <mxGeometry x="450" y="4170" width="120" height="60" as="geometry" />
        </mxCell>
        <mxCell id="oIRNVCnHQumXw-ZCoUcI-15" value="Animal Health" style="ellipse;whiteSpace=wrap;html=1;rounded=0;fontColor=#ffffff;strokeColor=#2D7600;fillColor=#60a917;" vertex="1" parent="1">
          <mxGeometry x="670" y="4230" width="120" height="60" as="geometry" />
        </mxCell>
        <mxCell id="oIRNVCnHQumXw-ZCoUcI-18" value="Animal ID" style="ellipse;whiteSpace=wrap;html=1;rounded=0;fontColor=#ffffff;strokeColor=#2D7600;fillColor=#60a917;" vertex="1" parent="1">
          <mxGeometry x="250" y="4230" width="120" height="60" as="geometry" />
        </mxCell>
        <mxCell id="oIRNVCnHQumXw-ZCoUcI-20" value="Animal type" style="ellipse;whiteSpace=wrap;html=1;rounded=0;fontColor=#ffffff;strokeColor=#2D7600;fillColor=#60a917;" vertex="1" parent="1">
          <mxGeometry x="240" y="4150" width="120" height="60" as="geometry" />
        </mxCell>
        <mxCell id="oIRNVCnHQumXw-ZCoUcI-21" value="Animal Origin" style="ellipse;whiteSpace=wrap;html=1;rounded=0;fontColor=#ffffff;strokeColor=#2D7600;fillColor=#60a917;" vertex="1" parent="1">
          <mxGeometry x="660" y="4130" width="120" height="60" as="geometry" />
        </mxCell>
        <mxCell id="oIRNVCnHQumXw-ZCoUcI-22" value="Animal Age" style="ellipse;whiteSpace=wrap;html=1;rounded=0;fontColor=#ffffff;strokeColor=#2D7600;fillColor=#60a917;" vertex="1" parent="1">
          <mxGeometry x="300" y="4070" width="120" height="60" as="geometry" />
        </mxCell>
        <mxCell id="oIRNVCnHQumXw-ZCoUcI-31" value="" style="edgeStyle=none;rounded=0;orthogonalLoop=1;jettySize=auto;html=1;" edge="1" parent="1" source="oIRNVCnHQumXw-ZCoUcI-28" target="oIRNVCnHQumXw-ZCoUcI-30">
          <mxGeometry relative="1" as="geometry" />
        </mxCell>
        <mxCell id="oIRNVCnHQumXw-ZCoUcI-34" style="edgeStyle=none;rounded=0;orthogonalLoop=1;jettySize=auto;html=1;exitX=1;exitY=0.25;exitDx=0;exitDy=0;entryX=0;entryY=0.5;entryDx=0;entryDy=0;" edge="1" parent="1" source="oIRNVCnHQumXw-ZCoUcI-28" target="oIRNVCnHQumXw-ZCoUcI-32">
          <mxGeometry relative="1" as="geometry" />
        </mxCell>
        <mxCell id="oIRNVCnHQumXw-ZCoUcI-28" value="Milking" style="whiteSpace=wrap;html=1;rounded=0;fontColor=#ffffff;strokeColor=#2D7600;fillColor=#60a917;" vertex="1" parent="1">
          <mxGeometry x="450" y="3930" width="120" height="60" as="geometry" />
        </mxCell>
        <mxCell id="oIRNVCnHQumXw-ZCoUcI-30" value="Quantity" style="ellipse;whiteSpace=wrap;html=1;rounded=0;fontColor=#ffffff;strokeColor=#2D7600;fillColor=#60a917;" vertex="1" parent="1">
          <mxGeometry x="670" y="4000" width="120" height="60" as="geometry" />
        </mxCell>
        <mxCell id="oIRNVCnHQumXw-ZCoUcI-32" value="Quality" style="ellipse;whiteSpace=wrap;html=1;rounded=0;fontColor=#ffffff;strokeColor=#2D7600;fillColor=#60a917;" vertex="1" parent="1">
          <mxGeometry x="660" y="3890" width="120" height="60" as="geometry" />
        </mxCell>
      </root>
    </mxGraphModel>
  </diagram>
</mxfile>
